<svg width="174" height="174" viewBox="0 0 174 174" fill="none" xmlns="http://www.w3.org/2000/svg">
<path d="M32.801 53.3109C31.8503 54.836 30.9704 56.396 30.1612 57.9908H20.295V63.7856H27.6007C26.4873 66.6142 25.5787 69.519 24.8817 72.4777H14.4964C14.1157 72.4776 13.7386 72.5525 13.3868 72.698C13.035 72.8436 12.7154 73.057 12.4461 73.3261C12.1769 73.5952 11.9633 73.9146 11.8177 74.2662C11.672 74.6177 11.5971 74.9946 11.5972 75.3751V98.554C11.5971 98.9346 11.672 99.3114 11.8177 99.6629C11.9633 100.015 12.1769 100.334 12.4461 100.603C12.7154 100.872 13.035 101.085 13.3868 101.231C13.7386 101.377 14.1157 101.452 14.4964 101.451H24.8816C26.4423 108.234 29.1184 114.711 32.8009 120.618L25.4762 127.939C25.2069 128.208 24.9933 128.528 24.8476 128.879C24.7018 129.231 24.6268 129.607 24.6268 129.988C24.6268 130.368 24.7018 130.745 24.8476 131.097C24.9933 131.448 25.2069 131.768 25.4762 132.036L41.8753 148.426C42.1444 148.695 42.464 148.909 42.8157 149.054C43.1674 149.2 43.5444 149.275 43.9251 149.275C44.3059 149.275 44.6829 149.2 45.0346 149.054C45.3863 148.909 45.7059 148.695 45.975 148.426L53.3025 141.106C54.8286 142.056 56.3896 142.935 57.9855 143.744V153.604H63.784V146.304C66.6145 147.417 69.5213 148.326 72.4819 149.023V159.399C72.4818 159.779 72.5567 160.156 72.7024 160.508C72.848 160.859 73.0616 161.179 73.3308 161.448C73.6001 161.717 73.9197 161.93 74.2715 162.076C74.6233 162.221 75.0004 162.296 75.3811 162.296H98.5753C98.9561 162.296 99.3332 162.221 99.685 162.076C100.037 161.93 100.356 161.717 100.626 161.448C100.895 161.179 101.108 160.859 101.254 160.508C101.4 160.156 101.475 159.779 101.475 159.399V149.023C108.261 147.461 114.742 144.786 120.654 141.106L127.981 148.426C128.251 148.695 128.57 148.909 128.922 149.055C129.274 149.2 129.651 149.275 130.031 149.275C130.412 149.275 130.789 149.2 131.141 149.055C131.493 148.909 131.812 148.695 132.081 148.426L148.48 132.037C148.75 131.768 148.963 131.448 149.109 131.097C149.255 130.745 149.33 130.369 149.33 129.988C149.33 129.608 149.255 129.231 149.109 128.879C148.963 128.528 148.75 128.209 148.48 127.94L141.156 120.618C142.106 119.093 142.986 117.533 143.795 115.938H153.662V110.144H146.356C147.469 107.315 148.378 104.41 149.075 101.451H159.46C159.841 101.452 160.218 101.377 160.57 101.231C160.922 101.085 161.241 100.872 161.511 100.603C161.78 100.334 161.993 100.015 162.139 99.6629C162.285 99.3114 162.36 98.9346 162.359 98.554V75.3751C162.36 74.9946 162.285 74.6177 162.139 74.2662C161.993 73.9146 161.78 73.5952 161.511 73.3261C161.241 73.057 160.922 72.8436 160.57 72.698C160.218 72.5525 159.841 72.4776 159.46 72.4777H149.075C147.514 65.695 144.838 59.2181 141.156 53.3109L148.48 45.9897C148.75 45.7207 148.963 45.4014 149.109 45.0499C149.255 44.6984 149.33 44.3216 149.33 43.9411C149.33 43.5607 149.255 43.1839 149.109 42.8324C148.963 42.4809 148.75 42.1616 148.48 41.8926L132.081 25.5029C131.812 25.2338 131.493 25.0204 131.141 24.8747C130.789 24.7291 130.412 24.6541 130.032 24.6541C129.651 24.6541 129.274 24.7291 128.922 24.8747C128.57 25.0204 128.251 25.2338 127.982 25.5029L120.654 32.8228C119.128 31.873 117.567 30.9936 115.971 30.1848V20.325H110.173V27.6254C107.342 26.5122 104.435 25.6034 101.475 24.9059V14.5303C101.475 14.1498 101.4 13.773 101.254 13.4214C101.109 13.0698 100.895 12.7504 100.626 12.4813C100.357 12.2122 100.037 11.9988 99.6851 11.8533C99.3333 11.7077 98.9562 11.6328 98.5754 11.6329H75.3812C75.0005 11.6328 74.6234 11.7077 74.2716 11.8533C73.9198 11.9988 73.6002 12.2122 73.3309 12.4813C73.0617 12.7504 72.8481 13.0698 72.7024 13.4214C72.5568 13.773 72.4819 14.1498 72.482 14.5303V24.9058C65.6951 26.4677 59.2141 29.1429 53.3026 32.8226L45.9751 25.5028C45.706 25.2337 45.3864 25.0202 45.0347 24.8746C44.6829 24.7289 44.306 24.6539 43.9252 24.6539C43.5445 24.6539 43.1675 24.7289 42.8158 24.8746C42.4641 25.0202 42.1445 25.2337 41.8753 25.5028L25.4763 41.8925C25.207 42.1614 24.9934 42.4808 24.8477 42.8323C24.7019 43.1838 24.6269 43.5605 24.6269 43.941C24.6269 44.3215 24.7019 44.6982 24.8477 45.0497C24.9934 45.4012 25.207 45.7206 25.4763 45.9895L32.801 53.3109ZM43.9252 31.6485L50.8621 38.5793C51.338 39.0562 51.9655 39.3522 52.6363 39.4162C53.3072 39.4803 53.9795 39.3084 54.5371 38.9302C60.9937 34.5641 68.273 31.5589 75.9306 30.098C76.592 29.9704 77.1883 29.6166 77.6171 29.0975C78.0459 28.5783 78.2805 27.9261 78.2805 27.253V17.4276H95.6762V27.253C95.6762 27.9261 95.9108 28.5783 96.3396 29.0975C96.7684 29.6166 97.3647 29.9704 98.0262 30.098C105.684 31.5589 112.963 34.5641 119.42 38.9302C119.977 39.3085 120.649 39.4805 121.32 39.4164C121.991 39.3524 122.619 39.0563 123.095 38.5793L130.031 31.6485L142.331 43.9411L135.397 50.872C134.921 51.3478 134.625 51.9746 134.561 52.6445C134.497 53.3145 134.668 53.9859 135.046 54.5432C139.414 60.9962 142.421 68.2711 143.882 75.924C144.009 76.5851 144.363 77.1814 144.882 77.6101C145.401 78.0387 146.054 78.273 146.728 78.2724H156.561V95.6567H146.728C146.054 95.6561 145.401 95.8903 144.882 96.319C144.363 96.7477 144.009 97.344 143.882 98.0051C142.421 105.658 139.414 112.933 135.046 119.386C134.668 119.943 134.497 120.615 134.561 121.285C134.625 121.955 134.921 122.581 135.397 123.057L142.331 129.988L130.031 142.281L123.095 135.35C122.618 134.874 121.991 134.579 121.32 134.515C120.65 134.451 119.978 134.622 119.42 134.999C112.963 139.365 105.684 142.37 98.0261 143.831C97.3647 143.959 96.7684 144.312 96.3396 144.832C95.9107 145.351 95.6762 146.003 95.6762 146.676V156.501H78.2805V146.676C78.2805 146.003 78.0459 145.351 77.6171 144.832C77.1882 144.312 76.5919 143.959 75.9305 143.831C68.2729 142.37 60.9936 139.365 54.537 134.999C53.9788 134.622 53.307 134.451 52.6365 134.515C51.9661 134.58 51.3388 134.874 50.862 135.35L43.9252 142.281L31.6259 129.988L38.5599 123.057C39.0361 122.581 39.3317 121.955 39.3958 121.285C39.4599 120.615 39.2884 119.943 38.911 119.386C34.5425 112.933 31.5358 105.658 30.0743 98.0051C29.9475 97.344 29.594 96.7477 29.0746 96.319C28.5552 95.8904 27.9025 95.6561 27.2289 95.6567H17.3957V78.2724H27.2289C27.9025 78.273 28.5553 78.0388 29.0747 77.6101C29.5941 77.1814 29.9476 76.5851 30.0744 75.924C31.5359 68.2711 34.5426 60.9962 38.911 54.5431C39.2884 53.9858 39.4599 53.3144 39.3958 52.6445C39.3317 51.9745 39.0361 51.3477 38.5599 50.8719L31.6259 43.9411L43.9252 31.6485Z" fill="#00ADB5"/>
<path d="M86.9783 139.117C97.2999 139.117 107.39 136.059 115.972 130.328C124.554 124.597 131.243 116.452 135.193 106.923C139.143 97.3929 140.176 86.9067 138.163 76.7901C136.149 66.6735 131.179 57.3807 123.88 50.087C116.582 42.7934 107.283 37.8263 97.1595 35.814C87.0362 33.8017 76.5432 34.8345 67.0073 38.7818C57.4713 42.7291 49.3208 49.4136 43.5865 57.9901C37.8521 66.5665 34.7914 76.6497 34.7914 86.9646C34.8072 100.791 40.3105 114.048 50.0941 123.825C59.8776 133.602 73.1424 139.101 86.9783 139.117ZM64.0219 127.194C56.4502 122.87 50.2419 116.512 46.1003 108.843C50.3756 109.534 54.9462 110.103 59.6988 110.563C61.1444 115.977 63.1955 121.211 65.8134 126.167C65.1879 126.496 64.5822 126.833 64.0219 127.194ZM84.0791 89.8294V106.028C77.3336 105.961 70.6952 105.67 64.352 105.163C63.1942 99.792 62.5564 94.3226 62.4472 88.8299C69.353 89.4207 76.6277 89.7588 84.0791 89.8294ZM62.5095 83.0238C62.734 77.8143 63.4387 72.6367 64.6148 67.5565C70.8531 68.037 77.3878 68.3028 84.0791 68.3649V84.0348C76.633 83.9632 69.3735 83.6226 62.5095 83.0238ZM84.0791 111.822V121.821C79.7158 121.989 75.3915 122.711 71.21 123.967C68.9898 119.869 67.2014 115.552 65.8735 111.085C71.7695 111.513 77.8801 111.762 84.0791 111.822ZM86.9783 133.322C81.4044 133.312 75.8786 132.29 70.6697 130.308C75.8911 128.396 81.4181 127.454 86.9783 127.528C92.5387 127.454 98.0657 128.396 103.287 130.308C98.0782 132.29 92.5523 133.312 86.9783 133.322ZM101.554 123.595C97.7398 122.571 93.8236 121.976 89.8776 121.821V111.822C95.5772 111.767 101.208 111.558 106.662 111.191C105.377 115.485 103.665 119.64 101.554 123.595ZM110.113 88.9435C109.998 94.4339 109.354 99.9005 108.191 105.268C102.275 105.709 96.1253 105.966 89.8776 106.027V89.8294C96.8294 89.7636 103.624 89.4635 110.113 88.9435ZM89.8776 84.0348V68.3649C96.0842 68.3074 102.146 68.068 107.971 67.6498C109.141 72.7369 109.84 77.9211 110.058 83.1365C103.604 83.6635 96.8253 83.968 89.8776 84.0348ZM109.935 127.194C109.014 126.595 108.054 126.058 107.061 125.589C109.508 120.846 111.44 115.856 112.826 110.703C118.099 110.224 123.151 109.603 127.856 108.843C123.715 116.513 117.506 122.87 109.935 127.194ZM133.367 86.9646C133.356 92.2508 132.434 97.4956 130.641 102.469C125.601 103.405 120.08 104.167 114.233 104.745C115.283 99.3619 115.851 93.8957 115.927 88.4117C122.149 87.7665 127.992 86.9128 133.311 85.8643C133.32 86.2337 133.367 86.5932 133.367 86.9646ZM132.794 80.058C127.628 81.1001 121.928 81.9504 115.839 82.5955C115.599 77.4038 114.914 72.2422 113.792 67.1675C118.763 66.6952 123.509 66.0863 127.984 65.3509C130.407 69.9466 132.033 74.9193 132.794 80.058ZM109.935 46.7349C115.736 50.0589 120.755 54.5897 124.653 60.0206C120.739 60.6092 116.606 61.0909 112.324 61.4809C110.994 56.9427 109.232 52.5424 107.061 48.3403C108.054 47.8706 109.014 47.3343 109.935 46.7349ZM89.8776 62.5703V52.1086C93.8236 51.9531 97.7398 51.358 101.554 50.3343C103.543 54.0428 105.178 57.9307 106.436 61.9464C101.092 62.307 95.5507 62.5169 89.8776 62.5703ZM86.9783 40.6066C92.5524 40.6172 98.0783 41.6387 103.287 43.6214C98.0659 45.5333 92.5387 46.4754 86.9783 46.4014C81.418 46.4754 75.8909 45.5333 70.6696 43.6214C75.8785 41.6387 81.4043 40.6172 86.9783 40.6066ZM71.21 49.9617C75.3915 51.2186 79.7158 51.94 84.0791 52.1086V62.5703C77.9231 62.5124 71.9164 62.2729 66.1564 61.8539C67.4517 57.7357 69.1442 53.7529 71.21 49.9617ZM64.0219 46.7349C64.5821 47.096 65.1878 47.4334 65.8132 47.7623C63.5183 52.0993 61.6631 56.6546 60.2752 61.3605C56.4758 60.9925 52.8055 60.5472 49.3044 60.0207C53.2014 54.5898 58.2205 50.059 64.0219 46.7349ZM45.9727 65.3508C50.0401 66.0193 54.3168 66.5921 58.7998 67.0434C57.6703 72.1094 56.9777 77.2629 56.7296 82.4472C51.1572 81.8222 45.9356 81.0207 41.1627 80.058C41.9234 74.9193 43.5497 69.9465 45.9727 65.3508ZM56.6318 88.2617C56.6996 93.7488 57.2584 99.2188 58.3015 104.606C52.9758 104.047 47.9482 103.329 43.3155 102.469C41.5231 97.4956 40.6011 92.2508 40.5899 86.9646C40.5899 86.5932 40.637 86.2337 40.6457 85.8643C45.5642 86.8339 50.9304 87.6358 56.6318 88.2617Z" fill="#00ADB5"/>
<path d="M8.69785 22.811V29.0171H14.4964V22.811C17.2294 22.1058 19.6113 20.4286 21.1955 18.094C22.7797 15.7594 23.4575 12.9275 23.1018 10.1292C22.7461 7.33084 21.3814 4.75821 19.2635 2.89349C17.1456 1.02878 14.4198 0 11.5971 0C8.77447 0 6.04871 1.02878 3.93077 2.89349C1.81283 4.75821 0.448128 7.33084 0.0924607 10.1292C-0.263206 12.9275 0.414584 15.7594 1.99878 18.094C3.58298 20.4286 5.96483 22.1058 8.69785 22.811ZM11.5971 5.83815C12.744 5.83815 13.8651 6.17801 14.8186 6.81474C15.7722 7.45148 16.5154 8.35649 16.9543 9.41534C17.3932 10.4742 17.508 11.6393 17.2843 12.7634C17.0605 13.8875 16.5083 14.92 15.6973 15.7304C14.8864 16.5408 13.8532 17.0927 12.7284 17.3163C11.6036 17.5399 10.4377 17.4251 9.37812 16.9865C8.31857 16.548 7.41296 15.8052 6.77581 14.8523C6.13866 13.8993 5.79858 12.779 5.79858 11.6329C5.80034 10.0966 6.41182 8.62368 7.49888 7.53733C8.58593 6.45099 10.0598 5.83991 11.5971 5.83815Z" fill="#00ADB5"/>
<path d="M162.36 23.2224C164.53 23.2305 166.66 22.6295 168.506 21.4878C170.352 20.3462 171.84 18.7096 172.801 16.7644C173.763 14.8192 174.158 12.6434 173.943 10.4846C173.728 8.3258 172.911 6.27069 171.585 4.55309C170.258 2.83549 168.476 1.52436 166.441 0.768891C164.406 0.0134161 162.2 -0.156072 160.073 0.279712C157.947 0.715495 155.985 1.73905 154.412 3.23392C152.839 4.72879 151.717 6.63495 151.174 8.73552H144.964V14.5303H151.174C151.813 17.0119 153.258 19.2115 155.282 20.7845C157.306 22.3574 159.795 23.2149 162.36 23.2224ZM162.36 5.83815C163.506 5.83815 164.627 6.17801 165.581 6.81474C166.535 7.45148 167.278 8.35649 167.717 9.41534C168.156 10.4742 168.27 11.6393 168.047 12.7634C167.823 13.8875 167.271 14.92 166.46 15.7304C165.649 16.5408 164.616 17.0927 163.491 17.3163C162.366 17.5399 161.2 17.4251 160.141 16.9865C159.081 16.5479 158.175 15.8052 157.538 14.8523C156.901 13.8993 156.561 12.779 156.561 11.6329C156.563 10.0966 157.174 8.62368 158.261 7.53733C159.348 6.45099 160.822 5.83991 162.36 5.83815Z" fill="#00ADB5"/>
<path d="M11.5971 173.886C14.1613 173.878 16.6504 173.021 18.6746 171.448C20.6988 169.875 22.1436 167.675 22.7825 165.194H28.9928V159.399H22.7825C22.2368 157.305 21.1144 155.406 19.5428 153.917C17.9713 152.429 16.0136 151.41 13.892 150.978C11.7704 150.546 9.56999 150.716 7.54065 151.471C5.51132 152.226 3.73439 153.534 2.41166 155.247C1.08893 156.96 0.273407 159.01 0.0577161 161.163C-0.157974 163.316 0.234808 165.486 1.19145 167.427C2.1481 169.368 3.63028 171.003 5.46965 172.144C7.30902 173.286 9.43188 173.889 11.5971 173.886ZM11.5971 156.501C12.744 156.501 13.8651 156.841 14.8186 157.478C15.7722 158.115 16.5154 159.02 16.9543 160.079C17.3932 161.138 17.508 162.303 17.2843 163.427C17.0605 164.551 16.5083 165.583 15.6973 166.394C14.8864 167.204 13.8532 167.756 12.7284 167.98C11.6036 168.203 10.4377 168.088 9.37812 167.65C8.31858 167.211 7.41297 166.469 6.77582 165.516C6.13866 164.563 5.79858 163.442 5.79858 162.296C5.80034 160.76 6.41182 159.287 7.49888 158.201C8.58594 157.114 10.0598 156.503 11.5971 156.501Z" fill="#00ADB5"/>
<path d="M14.4964 34.8119H8.69788V40.6066H14.4964V34.8119Z" fill="#00ADB5"/>
<path d="M14.4964 46.4014H8.69788V52.1961H14.4964V46.4014Z" fill="#00ADB5"/>
<path d="M14.4964 57.9908H8.69788V63.7856H14.4964V57.9908Z" fill="#00ADB5"/>
<path d="M139.165 8.7355H133.367V14.5302H139.165V8.7355Z" fill="#00ADB5"/>
<path d="M127.568 8.7355H121.77V14.5302H127.568V8.7355Z" fill="#00ADB5"/>
<path d="M115.971 8.7355H110.172V14.5302H115.971V8.7355Z" fill="#00ADB5"/>
<path d="M165.259 110.144H159.46V115.938H165.259V110.144Z" fill="#00ADB5"/>
<path d="M159.46 151.118C156.727 151.823 154.345 153.5 152.761 155.835C151.177 158.17 150.499 161.002 150.855 163.8C151.21 166.598 152.575 169.171 154.693 171.036C156.811 172.9 159.537 173.929 162.359 173.929C165.182 173.929 167.908 172.9 170.026 171.036C172.144 169.171 173.508 166.598 173.864 163.8C174.22 161.002 173.542 158.17 171.958 155.835C170.374 153.5 167.992 151.823 165.259 151.118V144.912H159.46V151.118ZM168.158 162.296C168.158 163.442 167.818 164.563 167.181 165.516C166.544 166.469 165.638 167.211 164.578 167.65C163.519 168.088 162.353 168.203 161.228 167.98C160.103 167.756 159.07 167.204 158.259 166.394C157.448 165.583 156.896 164.551 156.672 163.427C156.449 162.303 156.563 161.138 157.002 160.079C157.441 159.02 158.184 158.115 159.138 157.478C160.092 156.841 161.213 156.501 162.359 156.501C163.897 156.503 165.371 157.114 166.458 158.201C167.545 159.287 168.156 160.76 168.158 162.296Z" fill="#00ADB5"/>
<path d="M165.259 133.322H159.46V139.117H165.259V133.322Z" fill="#00ADB5"/>
<path d="M165.259 121.733H159.46V127.528H165.259V121.733Z" fill="#00ADB5"/>
<path d="M40.5899 159.399H34.7914V165.194H40.5899V159.399Z" fill="#00ADB5"/>
<path d="M52.187 159.399H46.3884V165.194H52.187V159.399Z" fill="#00ADB5"/>
<path d="M63.7841 159.399H57.9856V165.194H63.7841V159.399Z" fill="#00ADB5"/>
</svg>
